<mxfile host="app.diagrams.net" modified="2023-05-31T05:36:01.371Z" agent="Mozilla/5.0 (Macintosh; Intel Mac OS X 10_15_7) AppleWebKit/537.36 (KHTML, like Gecko) Chrome/113.0.0.0 Safari/537.36" etag="yohXHxenohz9TaN3XHto" version="21.3.3" type="device">
  <diagram name="Seite-1" id="DMoIpwFmf_IYYl2zh8EW">
    <mxGraphModel dx="1629" dy="1153" grid="1" gridSize="10" guides="1" tooltips="1" connect="1" arrows="1" fold="1" page="1" pageScale="1" pageWidth="827" pageHeight="1169" math="0" shadow="0">
      <root>
        <mxCell id="0" />
        <mxCell id="1" parent="0" />
        <mxCell id="ubMgIPK8mcVBixMk_mYF-1" value="" style="ellipse;html=1;shape=startState;fillColor=#000000;strokeColor=#ff0000;fontSize=16;" vertex="1" parent="1">
          <mxGeometry x="430" y="150" width="30" height="30" as="geometry" />
        </mxCell>
        <mxCell id="ubMgIPK8mcVBixMk_mYF-2" value="" style="edgeStyle=orthogonalEdgeStyle;html=1;verticalAlign=bottom;endArrow=open;endSize=8;strokeColor=#ff0000;rounded=0;fontSize=12;curved=1;entryX=0.5;entryY=0;entryDx=0;entryDy=0;" edge="1" source="ubMgIPK8mcVBixMk_mYF-1" parent="1" target="ubMgIPK8mcVBixMk_mYF-3">
          <mxGeometry relative="1" as="geometry">
            <mxPoint x="445" y="240" as="targetPoint" />
          </mxGeometry>
        </mxCell>
        <mxCell id="ubMgIPK8mcVBixMk_mYF-3" value="Jobangebot und Annahme" style="rounded=1;whiteSpace=wrap;html=1;arcSize=40;fontColor=#000000;fillColor=#ffffc0;strokeColor=#ff0000;fontSize=16;" vertex="1" parent="1">
          <mxGeometry x="367.5" y="230" width="155" height="50" as="geometry" />
        </mxCell>
        <mxCell id="ubMgIPK8mcVBixMk_mYF-4" value="" style="edgeStyle=orthogonalEdgeStyle;html=1;verticalAlign=bottom;endArrow=open;endSize=8;strokeColor=#ff0000;rounded=0;fontSize=12;curved=1;entryX=0.5;entryY=0;entryDx=0;entryDy=0;" edge="1" source="ubMgIPK8mcVBixMk_mYF-3" parent="1" target="ubMgIPK8mcVBixMk_mYF-6">
          <mxGeometry relative="1" as="geometry">
            <mxPoint x="445" y="330" as="targetPoint" />
          </mxGeometry>
        </mxCell>
        <mxCell id="ubMgIPK8mcVBixMk_mYF-6" value="Vertragsunterzeichnung" style="rounded=1;whiteSpace=wrap;html=1;arcSize=40;fontColor=#000000;fillColor=#ffffc0;strokeColor=#ff0000;fontSize=16;" vertex="1" parent="1">
          <mxGeometry x="342.5" y="330" width="205" height="50" as="geometry" />
        </mxCell>
        <mxCell id="ubMgIPK8mcVBixMk_mYF-7" value="" style="edgeStyle=orthogonalEdgeStyle;html=1;verticalAlign=bottom;endArrow=open;endSize=8;strokeColor=#ff0000;rounded=0;fontSize=12;curved=1;entryX=0.5;entryY=0;entryDx=0;entryDy=0;" edge="1" source="ubMgIPK8mcVBixMk_mYF-6" parent="1" target="ubMgIPK8mcVBixMk_mYF-9">
          <mxGeometry relative="1" as="geometry">
            <mxPoint x="445" y="430" as="targetPoint" />
          </mxGeometry>
        </mxCell>
        <mxCell id="ubMgIPK8mcVBixMk_mYF-9" value="Vorbereitung des Arbeitsplatzes" style="rounded=1;whiteSpace=wrap;html=1;arcSize=40;fontColor=#000000;fillColor=#ffffc0;strokeColor=#ff0000;fontSize=16;" vertex="1" parent="1">
          <mxGeometry x="322.5" y="440" width="245" height="50" as="geometry" />
        </mxCell>
        <mxCell id="ubMgIPK8mcVBixMk_mYF-10" value="" style="edgeStyle=orthogonalEdgeStyle;html=1;verticalAlign=bottom;endArrow=open;endSize=8;strokeColor=#ff0000;rounded=0;fontSize=12;curved=1;entryX=0.5;entryY=0;entryDx=0;entryDy=0;" edge="1" source="ubMgIPK8mcVBixMk_mYF-9" parent="1" target="ubMgIPK8mcVBixMk_mYF-11">
          <mxGeometry relative="1" as="geometry">
            <mxPoint x="445" y="540" as="targetPoint" />
          </mxGeometry>
        </mxCell>
        <mxCell id="ubMgIPK8mcVBixMk_mYF-11" value="Erster Arbeitstag" style="rounded=1;whiteSpace=wrap;html=1;arcSize=40;fontColor=#000000;fillColor=#ffffc0;strokeColor=#ff0000;fontSize=16;" vertex="1" parent="1">
          <mxGeometry x="362.5" y="540" width="165" height="40" as="geometry" />
        </mxCell>
        <mxCell id="ubMgIPK8mcVBixMk_mYF-12" value="" style="edgeStyle=orthogonalEdgeStyle;html=1;verticalAlign=bottom;endArrow=open;endSize=8;strokeColor=#ff0000;rounded=0;fontSize=12;curved=1;entryX=0.5;entryY=0;entryDx=0;entryDy=0;" edge="1" source="ubMgIPK8mcVBixMk_mYF-11" parent="1" target="ubMgIPK8mcVBixMk_mYF-16">
          <mxGeometry relative="1" as="geometry">
            <mxPoint x="445" y="660" as="targetPoint" />
          </mxGeometry>
        </mxCell>
        <mxCell id="ubMgIPK8mcVBixMk_mYF-16" value="Einarbeitungsphase" style="rhombus;whiteSpace=wrap;html=1;fontColor=#000000;fillColor=#ffffc0;strokeColor=#ff0000;fontSize=16;" vertex="1" parent="1">
          <mxGeometry x="335" y="660" width="220" height="100" as="geometry" />
        </mxCell>
        <mxCell id="ubMgIPK8mcVBixMk_mYF-17" value="Nicht zufrieden" style="edgeStyle=orthogonalEdgeStyle;html=1;align=left;verticalAlign=bottom;endArrow=open;endSize=8;strokeColor=#ff0000;rounded=0;fontSize=12;curved=1;entryX=0;entryY=0.5;entryDx=0;entryDy=0;" edge="1" source="ubMgIPK8mcVBixMk_mYF-16" parent="1" target="ubMgIPK8mcVBixMk_mYF-21">
          <mxGeometry x="-1" relative="1" as="geometry">
            <mxPoint x="630" y="710" as="targetPoint" />
          </mxGeometry>
        </mxCell>
        <mxCell id="ubMgIPK8mcVBixMk_mYF-18" value="zufrieden" style="edgeStyle=orthogonalEdgeStyle;html=1;align=left;verticalAlign=top;endArrow=open;endSize=8;strokeColor=#ff0000;rounded=0;fontSize=12;curved=1;entryX=0.5;entryY=0;entryDx=0;entryDy=0;" edge="1" source="ubMgIPK8mcVBixMk_mYF-16" parent="1" target="ubMgIPK8mcVBixMk_mYF-19">
          <mxGeometry x="-1" relative="1" as="geometry">
            <mxPoint x="445" y="870" as="targetPoint" />
            <mxPoint as="offset" />
          </mxGeometry>
        </mxCell>
        <mxCell id="ubMgIPK8mcVBixMk_mYF-19" value="Normaler Arbeitsprozess" style="rounded=1;whiteSpace=wrap;html=1;arcSize=40;fontColor=#000000;fillColor=#ffffc0;strokeColor=#ff0000;fontSize=16;" vertex="1" parent="1">
          <mxGeometry x="367.5" y="870" width="155" height="50" as="geometry" />
        </mxCell>
        <mxCell id="ubMgIPK8mcVBixMk_mYF-20" value="" style="edgeStyle=orthogonalEdgeStyle;html=1;verticalAlign=bottom;endArrow=open;endSize=8;strokeColor=#ff0000;rounded=0;fontSize=12;curved=1;entryX=0.5;entryY=0;entryDx=0;entryDy=0;" edge="1" source="ubMgIPK8mcVBixMk_mYF-19" parent="1" target="ubMgIPK8mcVBixMk_mYF-23">
          <mxGeometry relative="1" as="geometry">
            <mxPoint x="445" y="980" as="targetPoint" />
          </mxGeometry>
        </mxCell>
        <mxCell id="ubMgIPK8mcVBixMk_mYF-21" value="Anpassung und Wiederholung der Einarbeitungsphase" style="rounded=1;whiteSpace=wrap;html=1;arcSize=40;fontColor=#000000;fillColor=#ffffc0;strokeColor=#ff0000;fontSize=16;" vertex="1" parent="1">
          <mxGeometry x="670" y="665" width="180" height="90" as="geometry" />
        </mxCell>
        <mxCell id="ubMgIPK8mcVBixMk_mYF-22" value="" style="edgeStyle=orthogonalEdgeStyle;html=1;verticalAlign=bottom;endArrow=open;endSize=8;strokeColor=#ff0000;rounded=0;fontSize=12;curved=1;entryX=1;entryY=0;entryDx=0;entryDy=0;exitX=0.5;exitY=0;exitDx=0;exitDy=0;" edge="1" source="ubMgIPK8mcVBixMk_mYF-21" parent="1" target="ubMgIPK8mcVBixMk_mYF-16">
          <mxGeometry relative="1" as="geometry">
            <mxPoint x="740" y="480" as="targetPoint" />
            <Array as="points">
              <mxPoint x="760" y="560" />
              <mxPoint x="500" y="560" />
            </Array>
          </mxGeometry>
        </mxCell>
        <mxCell id="ubMgIPK8mcVBixMk_mYF-23" value="" style="ellipse;html=1;shape=endState;fillColor=#000000;strokeColor=#ff0000;fontSize=16;" vertex="1" parent="1">
          <mxGeometry x="430" y="980" width="30" height="30" as="geometry" />
        </mxCell>
        <mxCell id="ubMgIPK8mcVBixMk_mYF-25" style="edgeStyle=none;curved=1;rounded=0;orthogonalLoop=1;jettySize=auto;html=1;exitX=0;exitY=0.5;exitDx=0;exitDy=0;exitPerimeter=0;entryX=1;entryY=0.5;entryDx=0;entryDy=0;fontSize=12;startSize=8;endSize=8;" edge="1" parent="1" source="ubMgIPK8mcVBixMk_mYF-24" target="ubMgIPK8mcVBixMk_mYF-3">
          <mxGeometry relative="1" as="geometry" />
        </mxCell>
        <mxCell id="ubMgIPK8mcVBixMk_mYF-24" value="Note" style="shape=note;size=20;whiteSpace=wrap;html=1;fontSize=16;" vertex="1" parent="1">
          <mxGeometry x="650" y="205" width="190" height="100" as="geometry" />
        </mxCell>
      </root>
    </mxGraphModel>
  </diagram>
</mxfile>
